<?xml version="1.0" encoding="UTF-8" standalone="no"?>
<svg
   xmlns:dc="http://purl.org/dc/elements/1.1/"
   xmlns:cc="http://creativecommons.org/ns#"
   xmlns:rdf="http://www.w3.org/1999/02/22-rdf-syntax-ns#"
   xmlns:svg="http://www.w3.org/2000/svg"
   xmlns="http://www.w3.org/2000/svg"
   id="svg3734"
   version="1.1"
   xml:space="preserve"
   width="300"
   height="29.299999"
   viewBox="0 0 300.00001 29.3"><metadata
     id="metadata3740"><rdf:RDF><cc:Work
         rdf:about=""><dc:format>image/svg+xml</dc:format><dc:type
           rdf:resource="http://purl.org/dc/dcmitype/StillImage" /><dc:title></dc:title></cc:Work></rdf:RDF></metadata><defs
     id="defs3738" /><g
     transform="matrix(2.3076317,0,0,2.3076317,-1.2034394e-5,1.1450134e-5)"
     id="g3374"><path
       d="m 78.22568,10.170842 -3.321119,0 -0.0275,-0.7674694 c -0.837467,0.6424744 -1.856177,0.9637124 -3.097378,0.9637124 -2.609897,0 -4.283582,-1.6186866 -4.283582,-4.1023388 0,-2.4974017 1.673685,-4.1023385 4.33983,-4.1023385 1.116206,0 2.051169,0.2649895 2.901135,0.837467 l 0,-2.98613247 3.488613,0 0,10.15709977 z M 72.952138,4.5348143 c -1.074958,0 -1.78618,0.6687237 -1.78618,1.7299319 0,1.0599583 0.711222,1.7299319 1.78618,1.7299319 1.059958,0 1.784929,-0.6699736 1.784929,-1.7299319 0,-1.0612082 -0.724971,-1.7299319 -1.784929,-1.7299319"
       style="fill:#ced4d9;fill-opacity:1;fill-rule:nonzero;stroke:none"
       id="path3964" /><path
       d="m 80.136855,2.3574 3.459864,0 0.0425,0.5999764 c 0.50248,-0.5024803 1.213702,-0.7949687 2.162415,-0.7949687 1.828678,0 2.609897,0.9624621 2.609897,3.0411303 l 0,0.683723 -3.083628,0 c 0,-0.013749 0,-0.041248 0,-0.054998 0,-0.7812192 -0.26499,-1.1724538 -0.823718,-1.1724538 -0.641225,0 -0.823718,0.4887307 -0.823718,1.4786918 l 0,4.032341 -3.54361,0 0,-7.8134422"
       style="fill:#ced4d9;fill-opacity:1;fill-rule:nonzero;stroke:none"
       id="path3966" /><path
       d="m 94.705031,10.435832 c -3.599858,0 -5.553531,-1.5624385 -5.553531,-4.1710858 0,-2.6098973 1.953673,-4.1723358 5.553531,-4.1723358 3.781102,0 5.734779,1.6749341 5.734779,4.8423094 0,0.054998 0,0.097496 0,0.1387445 l -7.548457,0 c 0,0.8237176 0.711222,1.3261978 2.02367,1.3261978 0.864966,0 1.422444,-0.2237411 1.659935,-0.6137258 l 3.794852,0 c -0.516231,1.7161825 -2.427406,2.6498957 -5.664779,2.6498957 z m 2.148666,-5.0360518 c -0.0975,-0.8512165 -0.794969,-1.3536967 -1.953673,-1.3536967 -1.241201,0 -2.008671,0.4737314 -2.189914,1.3536967 l 4.143587,0"
       style="fill:#ced4d9;fill-opacity:1;fill-rule:nonzero;stroke:none"
       id="path3968" /><path
       d="m 104.94338,10.422083 c -2.55365,0 -3.83735,-0.851217 -3.83735,-2.5673994 0,-0.5712275 0.15374,-1.0599583 0.41873,-1.3949451 0.72497,-0.9074643 1.91118,-0.991211 3.59986,-1.1024566 2.44116,-0.1674934 3.57236,0 3.57236,-0.6274753 0,-0.4049841 -0.53123,-0.712472 -1.54869,-0.712472 -1.1312,0 -1.68868,0.1674935 -1.78618,0.7824692 l -3.59986,0 c 0.1525,-2.0099208 1.84118,-2.6511456 5.35729,-2.6511456 2.06492,0 3.46112,0.2924885 4.17234,0.8512165 0.89246,0.6974725 1.07371,1.576188 1.07371,2.9436341 l 0,3.0136314 c 0,0.5162297 0.07,0.837467 0.34998,1.0462088 l 0,0.167493 -3.6286,0 c -0.13875,-0.319987 -0.20875,-0.6837227 -0.2225,-1.0737073 -0.93496,0.9899613 -2.16366,1.3249483 -3.92109,1.3249483 z m 1.45119,-3.4873632 c -0.92121,0.083747 -1.3262,0.2224913 -1.3262,0.711222 0,0.4737314 0.44624,0.7674698 1.26995,0.7674698 1.57619,0 2.52615,-0.6974725 2.52615,-1.6886835 0,-0.069997 0,-0.1249951 -0.015,-0.1949923 -0.69747,0.3487362 -1.51994,0.3212373 -2.4549,0.404984"
       style="fill:#ced4d9;fill-opacity:1;fill-rule:nonzero;stroke:none"
       id="path3970" /><path
       d="m 114.18176,2.3574 3.46112,0 0,0.8099681 c 0.92121,-0.6562242 1.86992,-0.9637121 2.99988,-0.9637121 1.2412,0 2.06492,0.4187336 2.67865,1.4099445 1.0187,-0.9624621 2.10741,-1.4099445 3.48861,-1.4099445 2.25991,0 3.19487,1.1724539 3.19487,3.6423567 l 0,4.3248293 -3.44611,0 0,-3.6686052 c 0,-1.0749577 -0.26499,-1.5349395 -1.19996,-1.5349395 -0.97746,0 -1.56243,0.5162296 -1.56243,1.3811956 l 0,3.8223491 -3.39112,0 0,-3.6686052 c 0,-1.0749577 -0.26499,-1.5349395 -1.19995,-1.5349395 -0.97621,0 -1.56244,0.5162296 -1.56244,1.3811956 l 0,3.8223491 -3.46112,0 0,-7.813442"
       style="fill:#ced4d9;fill-opacity:1;fill-rule:nonzero;stroke:none"
       id="path3972" /><path
       d="M 4.3398384,10.367085 C 1.6749433,10.367085 9.2032e-6,8.7621479 9.2032e-6,6.2647462 9.2032e-6,3.7810939 1.6749433,2.1624077 4.2835906,2.1624077 c 1.2424511,0 2.261161,0.3062379 3.098628,0.9487126 L 7.4097175,2.3574 l 3.3211195,0 0,10.339593 -3.4886129,0 0,-3.1673753 C 6.3910076,10.102095 5.4560444,10.367085 4.3398384,10.367085 Z m 1.116206,-2.3724069 c 1.0612083,0 1.7861797,-0.6699736 1.7861797,-1.7299319 0,-1.0612082 -0.7249714,-1.7299319 -1.7861797,-1.7299319 -1.0737077,0 -1.7861796,0.6687237 -1.7861796,1.7299319 0,1.0599583 0.7124719,1.7299319 1.7861796,1.7299319"
       style="fill:#000000;fill-opacity:1;fill-rule:nonzero;stroke:none"
       id="path3974" /><path
       d="m 15.878134,10.324586 c -2.343658,0 -3.30612,-1.1724535 -3.30612,-3.6411063 l 0,-4.3260797 3.488613,0 0,3.6698555 c 0,1.0887072 0.26499,1.5349396 1.254951,1.5349396 1.01871,0 1.646185,-0.5162297 1.646185,-1.3811956 l 0,-3.8235995 3.488613,0 0,7.813442 -3.488613,0 0,-0.8087177 C 18.02805,10.018348 17.036839,10.324586 15.878134,10.324586"
       style="fill:#000000;fill-opacity:1;fill-rule:nonzero;stroke:none"
       id="path3976" /><path
       d="m 27.486427,10.422083 c -2.553649,0 -3.837349,-0.851217 -3.837349,-2.5673994 0,-0.5712275 0.153744,-1.0599583 0.418734,-1.3949451 0.726221,-0.9074643 1.912425,-0.991211 3.599858,-1.1024566 2.442404,-0.1674934 3.57236,0 3.57236,-0.6274753 0,-0.4049841 -0.52998,-0.712472 -1.548689,-0.712472 -1.129956,0 -1.688684,0.1674935 -1.78618,0.7824692 l -3.599858,0 c 0.153743,-2.0099208 1.842427,-2.6511456 5.358539,-2.6511456 2.064918,0 3.459863,0.2924885 4.171085,0.8512165 0.893715,0.6974725 1.074958,1.576188 1.074958,2.9436341 l 0,3.0136314 c 0,0.5162297 0.07,0.837467 0.348736,1.0462088 l 0,0.167493 -3.627357,0 C 31.49127,9.850855 31.421272,9.4871193 31.407523,9.0971347 30.47256,10.087096 29.245108,10.422083 27.486427,10.422083 Z M 28.93762,6.9347198 c -0.921214,0.083747 -1.324948,0.2224913 -1.324948,0.711222 0,0.4737314 0.446233,0.7674698 1.2687,0.7674698 1.577438,0 2.526151,-0.6974725 2.526151,-1.6886835 0,-0.069997 0,-0.1249951 -0.01375,-0.1949923 -0.697472,0.3487362 -1.52119,0.3212373 -2.456153,0.404984"
       style="fill:#000000;fill-opacity:1;fill-rule:nonzero;stroke:none"
       id="path3978" /><path
       d="m 36.726064,2.3574 3.487362,0 0,0.8099681 C 41.14839,2.5111439 42.139601,2.203656 43.297055,2.203656 c 2.344908,0 3.30737,1.1724539 3.30737,3.6423567 l 0,4.3248293 -3.488613,0 0,-3.6686052 c 0,-1.0887071 -0.264989,-1.5349395 -1.254951,-1.5349395 -1.018709,0 -1.647435,0.5162296 -1.647435,1.3811956 l 0,3.8223491 -3.487362,0 0,-7.813442"
       style="fill:#000000;fill-opacity:1;fill-rule:nonzero;stroke:none"
       id="path3980" /><path
       d="m 51.975463,10.310837 c -0.837467,0 -1.534939,-0.0975 -2.092417,-0.3212374 C 48.961832,9.6133644 48.821838,8.9296413 48.821838,7.7996858 l 0,-3.0561297 -1.241202,0 0,-2.1911638 1.241202,0 0,-2.5523995284 3.516111,0 0,2.5523995284 1.256201,0 0,2.1911638 -1.256201,0 0,1.6186862 c 0,1.2137023 0,1.6461852 0.851217,1.6461852 l 0.50248,0 0,2.1486655 c -0.586227,0.0975 -1.157455,0.153744 -1.716183,0.153744"
       style="fill:#000000;fill-opacity:1;fill-rule:nonzero;stroke:none"
       id="path3982" /><path
       d="m 55.032843,2.3574 3.55861,0 0,7.813442 -3.55861,0 0,-7.813442 z"
       style="fill:#000000;fill-opacity:1;fill-rule:nonzero;stroke:none"
       id="path3984" /><path
       d="m 65.634926,10.435832 c -3.628607,0 -5.59603,-1.5624385 -5.59603,-4.1710858 0,-2.5961478 1.967423,-4.1723358 5.59603,-4.1723358 3.334868,0 5.189795,1.1587044 5.511033,3.3761171 l -3.739853,0 c -0.278739,-0.711222 -0.836217,-1.0737077 -1.687434,-1.0737077 -1.242451,0 -1.996171,0.6974725 -1.996171,1.8561769 0,1.143705 0.75372,1.8411776 1.912425,1.8411776 0.976211,0 1.688683,-0.5162297 1.854927,-1.3536968 l 3.726103,0 c -0.25124,2.4561534 -2.121166,3.6973545 -5.58103,3.6973545"
       style="fill:#000000;fill-opacity:1;fill-rule:nonzero;stroke:none"
       id="path3986" /></g></svg>